<svg id="레이어_1" data-name="레이어 1" xmlns="http://www.w3.org/2000/svg" viewBox="0 0 841.89 595.28"><defs><style>.cls-1{fill:#fff;}</style></defs><path class="cls-1" d="M327.8,303.67a1.44,1.44,0,0,0,.91-.33,51.26,51.26,0,0,0,12.81-15.57,29.89,29.89,0,0,0,6.6.7h.55a1.46,1.46,0,0,0,0-2.91,4.85,4.85,0,0,0-.54,0c-15.45,0-16.8-10.23-16.85-10.63-.27-3.31.39-5.64,1.95-6.93,2.62-2.18,7.12-1,7.16-1a1.38,1.38,0,0,0,.67,0c12.39-2.42,18.9-20.79,19.17-21.57a1.46,1.46,0,0,0-2.75-1c-.06.18-6.12,17.25-16.68,19.61-1.36-.3-6.13-1.11-9.42,1.62-2.34,1.93-3.35,5.1-3,9.45,0,.1,1,8.25,10.31,11.72a49.52,49.52,0,0,1-11.79,14.16,1.46,1.46,0,0,0,.92,2.59Z"/><path class="cls-1" d="M316.94,252.82a1.46,1.46,0,0,0-2.78-.87c-.09.3-8.78,27.86-19.05,40.08v-31.5a1.46,1.46,0,0,0-2.91,0v35.14a1.44,1.44,0,0,0,.87,1.33,1.37,1.37,0,0,0,.59.13,1.47,1.47,0,0,0,1-.38C306.51,285.91,316.52,254.17,316.94,252.82Z"/><path class="cls-1" d="M574,245.71a1.45,1.45,0,0,0-1.72-1.12h0c-4.69,1-9,3.6-13,6.66a9.27,9.27,0,0,0,.37-4.38,6.75,6.75,0,0,0-.44-1.59,7.52,7.52,0,0,0,1.17-.06c5-.72,7.83-4.39,7.14-9.13s-4.48-7.42-9.45-6.72a6.92,6.92,0,0,0-1.71.5,7.11,7.11,0,0,0,0-1.79c-.72-5-4.4-7.83-9.13-7.14s-7.44,4.49-6.71,9.45A6.3,6.3,0,0,0,541,232a6.42,6.42,0,0,0-1.17.06,8.49,8.49,0,0,0-5.81,3.22,7.44,7.44,0,0,0-1.27,3.1,26.25,26.25,0,0,1,.55-5.38c1.86-2.46,11.35-15.63,5.84-21.27a1.52,1.52,0,0,0-.75-.4,4.91,4.91,0,0,0-3.65.77,3.51,3.51,0,0,0-4.78-.24c-1.11-.68-2.79-1.37-4.1-.61-1.13.67-1.55,2.06-1.22,4.17.08.49,2,11.65,5.75,17.25-1.13,5.32-.48,11.12.16,16.74.24,2.1.47,4.16.6,6.13.47,7.58.9,15.75.76,24-.15,8.83-.57,17.62-1.21,26.17-1.39-6.76-3.16-14.88-5.22-23.47,1.28-2.44,5.51-12.85,2.16-39.23a1.45,1.45,0,0,0-1.63-1.26,1.41,1.41,0,0,0-.81.46c.17-.25.36-.48.52-.76,2.47-4.45,1-9.19-3.68-11.79a7.73,7.73,0,0,0-2-.73,7.49,7.49,0,0,0,1.27-1.66c2.6-4.67,1.35-9.47-3.11-12s-9.19-1-11.79,3.68a7.58,7.58,0,0,0-.7,1.8,6.81,6.81,0,0,0-1.16-.82c-4.67-2.59-9.47-1.34-11.95,3.12s-1,9.19,3.68,11.79a7.73,7.73,0,0,0,2,.73,7.54,7.54,0,0,0-1.28,1.66c-2.59,4.67-1.34,9.48,3.12,11.95a9,9,0,0,0,4.34,1.17,7.51,7.51,0,0,0,2.05-.28,9,9,0,0,0,5.4-4.57c0-.06.05-.14.08-.2,5.38,15.54,10,34.21,13.42,49.53a67.24,67.24,0,0,0-9.17-14.53c-3.91-12.82-20.2-27.87-20.89-28.51a1.46,1.46,0,0,0-2.44,1.14c.72,15.8,18.87,27.81,21.07,29.21a53.83,53.83,0,0,1,5.75,8.21,1.46,1.46,0,0,0-.58.33,17.08,17.08,0,0,0-3.92,7.06c-.55-.61-1-1.22-1.6-1.83-.91-8-9.94-14.68-10.33-15a1.46,1.46,0,0,0-2.32,1.16c-.09,10.31,8.56,14.82,10.38,15.65.64.69,1.27,1.39,1.88,2.08a16.82,16.82,0,0,0-7.73,2.58,1.46,1.46,0,0,0,.34,2.59,16.9,16.9,0,0,0,5.47,1,8,8,0,0,0,5.58-1.94c.64.78,1.26,1.54,1.86,2.3a16.94,16.94,0,0,0-8,2.57,1.45,1.45,0,0,0-.64,1.39,1.49,1.49,0,0,0,1,1.2,17,17,0,0,0,5.47,1,8.07,8.07,0,0,0,5.5-1.86,154.63,154.63,0,0,1,9.25,13.89c-.73.28-1.46.58-2.19.85-3.23,1.21-6.58,2.47-9.75,4a88.78,88.78,0,0,0-8.58,4.91c-1.94,1.21-3.89,2.43-5.89,3.53-3.59,1.95-6.77,2.13-10.46,2.33-1.27.07-2.59.14-4,.28-3.53.36-7.06.78-10.59,1.22-20.46,2.52-40.35,5.53-57.29,8.19a6.31,6.31,0,0,0-.81-2.08,6.73,6.73,0,0,0-4.48-3L512,332.42a1.47,1.47,0,0,0,1.25-1.64,1.44,1.44,0,0,0-1.64-1.25l-95.22,12.59a1.45,1.45,0,0,0-1.26,1.63,1.42,1.42,0,0,0,1.24,1.19,1.4,1.4,0,0,0-1.24,1.25,1.46,1.46,0,0,0,1.34,1.55,4,4,0,0,1,2.85,1.69c.93,1.55.67,4.14-.77,7.49a5.82,5.82,0,0,1-.8,1.17,7.17,7.17,0,0,0-1.46,2.46,6.49,6.49,0,0,0,.84,5.6A12.22,12.22,0,0,1,418,368a7.52,7.52,0,0,1-.22,5.48,16,16,0,0,1-1.6,2.64,24,24,0,0,0-1.41,2.19c-1.35,2.45-.86,5.07-.42,7.39.67,3.58.8,5.07-2.56,6,0,0-2.24.22-5.37-2.91a1.47,1.47,0,0,0-1.71-.26c-.34.19-34.57,18-60.7.59a1.45,1.45,0,1,0-1.61,2.42c9.1,6.06,19.08,8.09,28.39,8.08a72.21,72.21,0,0,0,12.79-1.21c0,.18,0,.36.06.53.18.33,18,32.82,19.21,54.29a1.47,1.47,0,0,0,1.45,1.38h.08a1.45,1.45,0,0,0,1.38-1.53c-1.16-21.39-17.64-52-19.41-55.22a89.25,89.25,0,0,0,18.78-6.28c3.87,3.46,6.81,3.05,7.28,3,6.24-1.78,5.4-6.2,4.8-9.42-.13-.64-.23-1.27-.31-1.88l27.44-8.86c4.77-1.54,9.56-3.21,14.36-4.88,9.83-3.42,20-7,30-9.36,8.55-2,17.51-2.77,26.19-3.48l1.87-.15c1.59-.13,3.22-.24,4.89-.35a139.19,139.19,0,0,0,14.5-1.57c-.15,9.86-.11,20.75.14,32.49a1.45,1.45,0,0,0,1.45,1.43h0a1.47,1.47,0,0,0,1.43-1.49c-.25-11.78-.29-22.71-.14-32.58l10.7,31.28a1.45,1.45,0,0,0,1.37,1,1.59,1.59,0,0,0,.48-.07,1.46,1.46,0,0,0,.9-1.85l-10.76-31.49c.89-.26,1.82-.46,2.67-.77l16.2-6a5.66,5.66,0,0,0,3.89-3.22,4.75,4.75,0,0,0-.38-3.86,3.73,3.73,0,0,0-1.15-1.37,4.44,4.44,0,0,0,1.7-6.23,3.65,3.65,0,0,0-1.25-1.45,4.71,4.71,0,0,0,1.61-2.1,5,5,0,0,0-.39-4,3.9,3.9,0,0,0-2.07-1.94,4.21,4.21,0,0,0,.55-1.05,5,5,0,0,0-.39-4c-1.57-3.28-6-2.55-8.34-1.62l-19.21,7.53-.72.28a134.64,134.64,0,0,1,5.5-15.2,8.09,8.09,0,0,0,4.67,1.31,16.67,16.67,0,0,0,5.73-1.17,1.46,1.46,0,0,0,.27-2.6,16.88,16.88,0,0,0-8.51-2.33c.72-1.51,1.48-3,2.28-4.51a8.08,8.08,0,0,0,4.93,1.47,16.43,16.43,0,0,0,5.73-1.17,1.45,1.45,0,0,0,.27-2.59,16.9,16.9,0,0,0-8.26-2.35c.33-.53.65-1.06,1-1.58,10.45-2,11.23-12,11.24-12.06a1.45,1.45,0,0,0-2.16-1.37c-4.08,2.28-7.79,6.35-11.06,11.14a1.41,1.41,0,0,0-.23.35c-.31.45-.59.94-.89,1.41a17.49,17.49,0,0,0-3.93-6.46,1.46,1.46,0,0,0-2.46.86c-.83,6.69,1.57,9.54,3.35,10.74-.63,1.17-1.24,2.35-1.82,3.53a17.84,17.84,0,0,0-3.77-6,1.42,1.42,0,0,0-1.38-.34c.36-2,.68-3.95,1.15-5.8,3.27-4.22,8.81-8.12,14.16-11.9S561,269.3,564.46,265a52.78,52.78,0,0,0,7.37-12.76c.07-.15.24-.68.46-1.38.31-1,1-3.22,1.32-3.87A1.43,1.43,0,0,0,574,245.71Zm-77.55,11.34c4.17,4.25,11.5,12.3,15.29,20C506.83,273.23,498.81,265.87,496.44,257.05Zm7.81,28.65a23.67,23.67,0,0,1,5.82,8.1A14,14,0,0,1,504.25,285.7Zm12.08,24a10.78,10.78,0,0,1,2.51-.38A7.75,7.75,0,0,1,516.33,309.74Zm28.76-3.09a6.74,6.74,0,0,1-2.53-.32A11.3,11.3,0,0,1,545.09,306.65Zm2.19-9.46a10.78,10.78,0,0,1,2.51.32,6.43,6.43,0,0,1-2.54-.32Zm8.06-13.05a10.19,10.19,0,0,1-4.3,4.51A33.82,33.82,0,0,1,555.34,284.14Zm-19-47.16a5.62,5.62,0,0,1,3.88-2.06,6.36,6.36,0,0,1,3.41.7,1.45,1.45,0,0,0,1.77-.47,1.48,1.48,0,0,0-.1-1.84,6.77,6.77,0,0,1-1.9-3.34c-.58-4,1.82-5.8,4.26-6.15s5.25.69,5.83,4.68a7.72,7.72,0,0,1-1.28,4.55,1.45,1.45,0,0,0,.4,1.88,1.47,1.47,0,0,0,1.92-.15,7.75,7.75,0,0,1,4-2.53c4-.59,5.8,1.82,6.16,4.26s-.7,5.25-4.69,5.83a6.55,6.55,0,0,1-3.41-.7,1.45,1.45,0,0,0-1.67,2.3,6.78,6.78,0,0,1,1.89,3.34c.58,4-1.82,5.8-4.25,6.16s-5.25-.7-5.84-4.68a7.78,7.78,0,0,1,1.28-4.55,1.46,1.46,0,0,0-.39-1.88,1.46,1.46,0,0,0-1.92.15,7.73,7.73,0,0,1-4,2.52c-4,.6-5.8-1.81-6.16-4.25A5,5,0,0,1,536.33,237Zm-8.86-22a5.41,5.41,0,0,1-.07-1.08,6.33,6.33,0,0,1,1.74,1,1.44,1.44,0,0,0,2-.15c.56-.6,1-.78,1.17-.74.34,0,.79.63,1,1a1.44,1.44,0,0,0,1.23.86,1.49,1.49,0,0,0,1.34-.69,1.88,1.88,0,0,1,1.53-1c2,3.06-1.73,10.5-5.32,15.62C529.1,224.34,527.48,215,527.47,214.93Zm-3.27,62.29c-.45-1.8-.91-3.62-1.39-5.44v0c-1.47-5.79.16-11.19,1.89-16.9.29-1,.59-1.95.87-2.92C526.58,265.17,525.35,273,524.2,277.22Zm.74-34.65a1.39,1.39,0,0,0-.23.84h0a13.29,13.29,0,0,1-1,4.34c-.2.64-.4,1.22-.52,1.72-.4,1.52-.86,3-1.31,4.54-.73,2.4-1.45,4.84-1.95,7.34-1.59-5.58-3.27-11.05-5-16.2A8,8,0,0,0,524.94,242.57Zm-15-2.57a7.28,7.28,0,0,1-.58,4.17,6.19,6.19,0,0,1-3.63,3.18,5.47,5.47,0,0,1-4.19-.63c-2.38-1.32-4.15-4.11-2-8a8.4,8.4,0,0,1,4.12-3.11,1.45,1.45,0,0,0-.57-2.79h-.22a8.33,8.33,0,0,1-5.15-.46c-3.88-2.16-3.86-5.46-2.55-7.83s4.12-4.14,8-2a6.94,6.94,0,0,1,2.5,2.88,1.44,1.44,0,0,0,1.7.7,1.47,1.47,0,0,0,1-1.52,7.39,7.39,0,0,1,.57-4.17c2.16-3.88,5.46-3.86,7.84-2.55s4.14,4.12,2,8a8.39,8.39,0,0,1-4.13,3.11,1.46,1.46,0,0,0,.8,2.78,8.36,8.36,0,0,1,5.15.46c3.88,2.15,3.86,5.46,2.54,7.83s-4.11,4.14-8,2a6.59,6.59,0,0,1-2.11-2.29l-.06-.15c0-.08-.12-.1-.16-.17s-.12-.16-.18-.27a1.46,1.46,0,0,0-2.73.82Zm8.88,56.37a6.74,6.74,0,0,1-.83,2.42A11,11,0,0,1,518.78,296.37ZM511,303.19a10.62,10.62,0,0,1,2.56-.38A6,6,0,0,1,511,303.19Zm7.88-1.1c1.41-1.17,2.94-3.5,2.87-7.82a107.73,107.73,0,0,1,7.58,19.78c.2,1,.4,2,.57,2.94A169.78,169.78,0,0,0,518.91,302.09Zm17.37,23.79,19.21-7.52c.76-.3,4-1.22,4.7.29a2.17,2.17,0,0,1,.22,1.65c-.3.79-1.38,1.29-2.28,1.58l-17.19,6.37a1.46,1.46,0,0,0,1,2.73l15.17-5.62c.09,0,.18,0,.27,0,.76-.3,4-1.22,4.7.29a2.17,2.17,0,0,1,.22,1.65c-.3.8-1.37,1.29-2.28,1.58l-17.19,6.37a1.45,1.45,0,0,0-.85,1.87,1.44,1.44,0,0,0,1.36.95,1.52,1.52,0,0,0,.51-.09l13.52-5c.13,0,.25.06.38,0,.71-.28,3.7-1.14,4.36.24a2,2,0,0,1,.2,1.5c-.28.72-1.27,1.17-2.11,1.45l-16.27,6a1.45,1.45,0,0,0,.5,2.81,1.52,1.52,0,0,0,.51-.09l11.75-4.35a1.51,1.51,0,0,0,.52,0c.69-.29,3.67-1.15,4.35.24a2,2,0,0,1,.2,1.5c-.28.72-1.27,1.17-2.11,1.45-10.5,3.89-14.6,5.4-16.2,6.22l-.07-.19c-6.5,2.4-14.35,2.93-21.94,3.45-1.68.12-3.33.23-4.92.36l-1.88.15c-8.78.72-17.86,1.46-26.62,3.55-10.22,2.43-20.44,6-30.34,9.44-4.77,1.67-9.54,3.33-14.29,4.86l-26.28,8.48a3.39,3.39,0,0,1,.15-.41,22.07,22.07,0,0,1,1.25-1.94,18.41,18.41,0,0,0,1.87-3.12,10.4,10.4,0,0,0,.3-7.62,14.86,14.86,0,0,0-1-2.22c-.69-1.29-1.07-2-.64-3.37a5,5,0,0,1,.95-1.49,7.69,7.69,0,0,0,1.21-1.85,18.08,18.08,0,0,0,1.43-5.17c17-2.66,37-5.69,57.59-8.24,3.51-.43,7-.84,10.53-1.21,1.34-.14,2.61-.2,3.84-.27,3.87-.21,7.53-.41,11.69-2.68,2.06-1.12,4.05-2.37,6-3.61a85,85,0,0,1,8.29-4.75c3.06-1.45,6.34-2.69,9.52-3.88C532.2,327.49,534.28,326.71,536.28,325.88Zm6.14-32.14a6.69,6.69,0,0,1-.9-2.38A11.06,11.06,0,0,1,542.42,293.74Zm-4.7,9.14a6.77,6.77,0,0,1-.9-2.38A11.06,11.06,0,0,1,537.72,302.88Zm-.24,3.76c-1.62,3.76-3,7.31-4,10.22-.17-3.12-.18-6.31,0-9.53a.76.76,0,0,1,0-.15c.09-2.07.34-4,.55-6A7.9,7.9,0,0,0,537.48,306.64Zm-2.83-23c0-1.34.11-2.68.13-4,.14-8.4-.29-16.64-.77-24.29-.13-2-.37-4.12-.61-6.27-.28-2.51-.55-5.05-.67-7.55.82,4.52,4.52,7.06,9.37,6.37a6.7,6.7,0,0,0,1.71-.49,6.6,6.6,0,0,0,0,1.78c.65,4.48,3.7,7.25,7.76,7.25a9.31,9.31,0,0,0,1.37-.1c.13,0,.24-.06.36-.09-8.33,7.36-13.61,14.4-17,22.71C535.69,280.45,535.17,282.05,534.65,283.64ZM569.51,250c-.17.55-.3,1-.36,1.11a49.68,49.68,0,0,1-6.95,12.07c-3.21,3.94-8.49,7.67-13.6,11.26A116.69,116.69,0,0,0,538,282.53c.31-.84.62-1.67,1-2.49,3.31-8.1,8.53-15,16.91-22.22,4.41-3.83,9.1-7.67,14.16-9.56C569.91,248.78,569.72,249.36,569.51,250Z"/><path class="cls-1" d="M550.09,242.8a4,4,0,0,0,.49,0,4.17,4.17,0,1,0-3.76-6.72,4.08,4.08,0,0,0-.86,3.07A4.17,4.17,0,0,0,550.09,242.8Zm-.14-5.42h.15a1.21,1.21,0,0,1,.77.27,1.28,1.28,0,0,1,.47.84h0a1.23,1.23,0,0,1-.26.92,1.25,1.25,0,0,1-2.23-.63A1.25,1.25,0,0,1,550,237.38Z"/><path class="cls-1" d="M512.79,231.87a4.16,4.16,0,0,0-4.62-3.64,4.14,4.14,0,0,0-3.65,4.63,4.17,4.17,0,0,0,4.13,3.67,4,4,0,0,0,.49,0,4.16,4.16,0,0,0,3.65-4.63Zm-3.15,1.27a1.25,1.25,0,0,1-2.23-.63,1.24,1.24,0,0,1,1.1-1.39h.15a1.26,1.26,0,0,1,1.24,1.1h0A1.22,1.22,0,0,1,509.64,233.14Z"/><path class="cls-1" d="M305.75,305.94a46.6,46.6,0,0,0,8.44,30.2,1.42,1.42,0,0,0,.06,1.14c6.38,12.54,9.41,25.32,8.75,37-.27,4.93-1.59,9.95-2.87,14.8-2.13,8.1-4.34,16.47-2,25.13a47.27,47.27,0,0,0,3.73,8.89,38.66,38.66,0,0,1,3.8,9.57c1.16,5.85.36,13.15-2.19,20a1.45,1.45,0,0,0,.86,1.87,1.45,1.45,0,0,0,1.87-.87c2.73-7.37,3.57-15.25,2.31-21.61a40.93,40.93,0,0,0-4.05-10.31,43.87,43.87,0,0,1-3.51-8.33c-2.12-7.92-.11-15.55,2-23.63,1.32-5,2.68-10.16,3-15.39.56-10-1.5-20.75-5.92-31.49a52.76,52.76,0,0,0,18.39,11.4,1.32,1.32,0,0,0,.51.1A1.46,1.46,0,0,0,340,352c-2.71-2.93-2.32-10.28-2.17-13.05,0-.33.06-.65.09-1,11.46-6,40.22-16.55,73.27,6a1.43,1.43,0,0,0,.81.25,1.46,1.46,0,0,0,.83-2.66c-25.84-17.62-49.21-15.75-64.29-11.08,0-.08.05-.16,0-.24-4.31-16.15,7.75-27,10.6-29.33.89.29,2,.68,3.29,1.13,9.29,3.25,26.58,9.3,33.81,3.69,2.51-1.94,3.61-5,3.27-9.1-.08-1-.07-2.79,1-3.52a6.43,6.43,0,0,0,2.24-8.17c1.67-2.6.8-5.47.1-7l5.65-5.35a1.45,1.45,0,0,0,.43-1.32,1.47,1.47,0,0,0-.87-1.08c-5.19-2.15-7.32-7.08-8.19-11.06a16.68,16.68,0,0,0,8.33-.48c-3.47,0-6.88-1.82-8.86-3.09a21.76,21.76,0,0,1-.06-2.29c.53-10.33-3.36-15.73-3.52-16s-.3-.17-.45-.26a1.43,1.43,0,0,0,.66-1.08c.76-12.18-3.9-23.24-13.48-32-13.46-12.31-36-18.89-54.88-16A60.92,60.92,0,0,0,280.75,223c-6.11,13.25-7.74,26.69-8.32,42.8l-.07,2.05c-.39,10.18-.8,22.67,4,31.93a130,130,0,0,0-26,10.12,1.42,1.42,0,0,0-.78,1.06,1.44,1.44,0,0,0,.4,1.26c.46.46,10.82,10.78,25.43,10.78.8,0,1.63,0,2.46-.1l.32,0c2.63,10.24-3.42,17.33-9.9,24.8-3.37,3.88-6.86,7.89-9.09,12.42-4.18,8.51-2.58,15.5-.89,22.9.47,2.06,1,4.2,1.35,6.45,1.82,10.63-3.49,18-9.56,25.21a35.12,35.12,0,0,0-7.61,29.4,1.45,1.45,0,0,0,1.42,1.15,1.06,1.06,0,0,0,.31,0,1.45,1.45,0,0,0,1.12-1.73,32.13,32.13,0,0,1,7-26.91c6.54-7.76,12.23-15.71,10.2-27.57-.39-2.31-.89-4.49-1.37-6.61-1.65-7.18-3.06-13.38.66-21,2.07-4.2,5.43-8.07,8.67-11.81,6.65-7.65,13.41-15.59,10.58-27.13,7.35-1.37,14.33-5.4,20.85-12.11a106.37,106.37,0,0,1-3.42,25.78c-1.46,5.45-4.13,10.56-6.71,15.49-3.68,7-7.49,14.31-8.14,23-.54,7.16,1.08,13.94,2.64,20.48s3,12.74,2.59,19.38c-.83,12.3-6.55,22.88-16.11,29.77a1.46,1.46,0,0,0-.33,2,1.44,1.44,0,0,0,2,.33c10.28-7.41,16.43-18.75,17.32-31.94.47-7.08-1.12-13.77-2.67-20.24-1.58-6.63-3.07-12.88-2.57-19.6.6-8.1,4.11-14.8,7.82-21.88,2.65-5.07,5.4-10.32,6.94-16.09A110,110,0,0,0,304.85,307C305.15,306.66,305.45,306.31,305.75,305.94Zm3.09-1.86c3.57,3.78,10.67,12,12.34,19.26-1.85-1.58-3.89-3.62-4.43-5.16a1.45,1.45,0,1,0-2.74,1c1.29,3.7,7.43,8.17,8.12,8.66a1.48,1.48,0,0,0,.85.27,1.51,1.51,0,0,0,.65-.15,1.42,1.42,0,0,0,.8-1.26c.28-9.09-9.27-20.18-13.59-24.72a61,61,0,0,1,10.4,3.13c8.87,4.5,14.47,14.55,14.28,25.62,0,1.51-.18,3-.33,4.51-.12,1.18-.24,2.36-.3,3.54-.2,3.66-.22,7.92.83,11.31C317.16,341.58,306.72,323.74,308.84,304.08Zm51.21-6c-2-8-5-27.21,3.06-30.76.8-.35,1.56-.73,2.29-1.11,2.23-1.14,4-2,6.38-1.71a15.79,15.79,0,0,1,10.14,6.61c5.11,7.06,7.37,16,5.74,22.77a15.29,15.29,0,0,1-8,10.2,134.14,134.14,0,0,1-16.3-4.87C362.06,298.77,361,298.4,360.05,298.1ZM275.26,268l.08-2.06c.56-15.76,2.15-28.88,8.05-41.68,8.53-18.45,24.38-30.32,44.63-33.42,18-2.75,39.62,3.52,52.48,15.27,8.67,7.93,13,17.87,12.58,28.8L380.8,240.4c.24-5.53.25-18.23-4.41-22.67A1.46,1.46,0,0,0,374,219c0,.25,3.37,22.59-8.56,30.87,1.73-4.35,3.52-11.58.37-18.71a1.45,1.45,0,0,0-2.66,1.18c4.23,9.58-2.08,19.92-2.15,20a1.48,1.48,0,0,0,.11,1.69,1.45,1.45,0,0,0,1.62.45c12-4.34,14.48-17.68,14.67-26.84a72.85,72.85,0,0,1,.4,14.92,1.46,1.46,0,0,0,.61,1.31,1.48,1.48,0,0,0,1.44.14l13.35-6a1.4,1.4,0,0,0,.23.95c0,.05,3.43,4.88,3,14.09,0,.58-.61,13.35,8.62,18.78l-5,4.71a1.47,1.47,0,0,0-.18,1.84s2.07,3.16.12,5.36a1.46,1.46,0,0,0-.15,1.72c.31.53,1.76,3.29-.95,5.18-1.67,1.16-2.45,3.34-2.22,6.15.25,3.09-.45,5.24-2.15,6.56-2.28,1.77-6.17,2-10.54,1.45a18.14,18.14,0,0,0,6.58-10.24c1.82-7.57-.62-17.44-6.21-25.16a18.51,18.51,0,0,0-12.1-7.78c-3.32-.46-5.75.79-8.1,2-.69.35-1.39.71-2.14,1-11.28,4.95-6,29-4.74,34-3.36,2.81-16.12,14.87-11.48,32.24,0,.14.15.22.23.34a71.58,71.58,0,0,0-7.8,3.23c.13-1.25.26-2.49.28-3.75.21-12.17-6-23.26-15.87-28.26-.11-.06-12-4.85-15.09-3.29-2.85-1.13-12.05-3.75-28.24-.1C274.45,290.48,274.88,278,275.26,268Zm2.39,52c-11.38.93-20.57-5.55-24.08-8.46,24.81-12.14,40.63-12.07,48.22-10.79-7.2,1-23.6,3.94-25.8,9.95a1.41,1.41,0,0,0,.1,1.2,1.43,1.43,0,0,0,1,.72,59,59,0,0,0,9.94,1.13q.84,0,1.62-.06a1.46,1.46,0,0,0,1.34-1.56,1.5,1.5,0,0,0-1.57-1.34,40.53,40.53,0,0,1-8.44-.61c3.91-3.13,15.51-5.72,24.08-6.78-.55.69-1.1,1.42-1.67,2.08h0C294.68,314.41,286.4,319.29,277.65,320Z"/><path class="cls-1" d="M197.58,498.51v.94c3.59.24,4.18.88,4.28,4.43V525.2c-.05,4.18-.54,4.73-4.28,5v.93h13.79v-.93c-3.75-.15-4.44-.84-4.49-4.44V515H214c4,0,4.82.74,5.41,4.72h1.13V508.31h-1.13c-.54,3.89-1.38,4.58-5.41,4.68h-7.15V502.06c.05-1.48.2-1.63,1.58-1.68h6.7c5.71.1,6.69.79,7.48,5.17h1.23l-.14-7Z"/><path class="cls-1" d="M246.72,529.19h-3.3c-3.79-.1-4.19-.25-4.24-2V503.88c.1-3.6.74-4.24,4.58-4.43v-.94H229.88v.94c3.59.24,4.18.88,4.28,4.43v21.86c-.1,3.55-.74,4.24-4.28,4.44v.93h26.49l2.37-8.57H257.5C255.19,527.71,253.07,529,246.72,529.19Z"/><path class="cls-1" d="M281.78,497.82c-9.41,0-16.11,7-16.11,17,0,4.63,1.58,9.16,4.24,12a16.06,16.06,0,0,0,11.57,5c9.7,0,16.4-6.84,16.4-16.79,0-4.88-1.43-9.11-4.14-12A15.74,15.74,0,0,0,281.78,497.82Zm8.86,26a10,10,0,0,1-2.41,3.6,9,9,0,0,1-6.55,2.61,9.62,9.62,0,0,1-6.25-2.42c-2.52-2.26-4.14-7.23-4.14-12.7,0-5,1.38-9.8,3.44-12.12a9.31,9.31,0,0,1,7-3.2,9.56,9.56,0,0,1,6.3,2.47c2.66,2.41,4.18,7,4.18,12.9A26.32,26.32,0,0,1,290.64,523.82Z"/><path class="cls-1" d="M338.06,499.45c2.51.24,3.39.78,3.39,2.11a11.8,11.8,0,0,1-.78,3.69L334.51,522,328,505.16c-.1-.25-.54-1.33-.59-1.48a7.87,7.87,0,0,1-.74-2.51c0-1.18,1.14-1.68,3.79-1.72v-.94H317.32v.94c2.81,0,3.3.49,5,4.43l1.62,4-5.27,13.88-7.09-18.51A7.18,7.18,0,0,1,311,501c0-1.08.69-1.43,3.2-1.57v-.94H302.16v.94c2.51.24,3.25,1.13,5.07,5.76l9.5,26.44h.74l7.59-20.83,7.87,20.83h.74c4.19-12.85,4.68-14.23,10.05-28.71.94-2.56,1.48-3,4.09-3.49v-.94h-9.75Z"/><path class="cls-1" d="M370.75,529.29h-1.33c-5.12-.15-5.17-.2-5.17-2.12V515h7.58c4.14.09,4.78.69,5.42,4.72h1.13V508.31h-1.13c-.59,4-1.28,4.58-5.42,4.68h-7.58V502.06c.05-1.48.25-1.68,1.62-1.68h6.65c5.71.1,6.7.79,7.48,5.17h1.24l-.15-7H354.94v.94c3.6.24,4.19.88,4.28,4.43v21.86c-.09,3.55-.74,4.24-4.28,4.44v.93h26.59l2.22-8.32h-1.38C380,528,377.79,529.24,370.75,529.29Z"/><path class="cls-1" d="M417.52,527.86,407.38,515.4c6.25-1.23,8.91-3.69,8.91-8.22a7.8,7.8,0,0,0-1.92-5.37c-1.87-2-6-3.3-10.59-3.3H390.19v.94c3.65.39,4.14.83,4.19,4.43V525.2c-.05,4.18-.5,4.68-4.19,5v.93h13.64v-.93c-3.79-.25-4.38-.84-4.43-4.44V516l2.76-.1,11.72,15.17h7.93v-.93A5.41,5.41,0,0,1,417.52,527.86ZM399.4,514.22V502.1c0-1.37.54-1.77,2.51-1.77,6.16,0,9,2.12,9,6.75a6,6,0,0,1-2.8,5.47C405.85,513.83,404.13,514.12,399.4,514.22Z"/><path class="cls-1" d="M462.14,497.82c-9.41,0-16.11,7-16.11,17,0,4.63,1.58,9.16,4.24,12a16.06,16.06,0,0,0,11.57,5c9.7,0,16.4-6.84,16.4-16.79,0-4.88-1.43-9.11-4.14-12A15.74,15.74,0,0,0,462.14,497.82Zm8.86,26a10.17,10.17,0,0,1-2.41,3.6A9,9,0,0,1,462,530a9.64,9.64,0,0,1-6.26-2.42c-2.51-2.26-4.14-7.23-4.14-12.7,0-5,1.39-9.8,3.45-12.12a9.31,9.31,0,0,1,7.05-3.2,9.58,9.58,0,0,1,6.3,2.47c2.66,2.41,4.18,7,4.18,12.9A26.57,26.57,0,0,1,471,523.82Z"/><path class="cls-1" d="M485.42,498.51v.94c3.59.24,4.19.88,4.28,4.43V525.2c-.05,4.18-.54,4.73-4.28,5v.93h13.79v-.93c-3.75-.15-4.43-.84-4.49-4.44V515h7.15c4,0,4.82.74,5.41,4.72h1.13V508.31h-1.13c-.54,3.89-1.37,4.58-5.41,4.68h-7.15V502.06c.06-1.48.2-1.63,1.58-1.68H503c5.71.1,6.7.79,7.48,5.17h1.24l-.15-7Z"/><path class="cls-1" d="M558.2,499.45c2.56,0,3.4.44,3.4,1.62a3.38,3.38,0,0,1-.69,1.82l-7,11.13-7.28-10.93a4.27,4.27,0,0,1-.84-2.17c0-.93.69-1.33,2.27-1.43.19,0,.68,0,1.22,0v-.94H535.45v.94c2.36.09,3,.78,8,7.73l6.46,9.45v8.57c-.06,4.33-.5,4.78-5,5v.93H560v-.93c-4.38-.1-5-.65-5.07-4.44v-9.55l7.29-11.13c3-4.33,4.28-5.42,6.79-5.61v-.94H558.2Z"/><path class="cls-1" d="M589.36,497.82c-9.4,0-16.1,7-16.1,17,0,4.63,1.58,9.16,4.24,12a16,16,0,0,0,11.57,5c9.7,0,16.4-6.84,16.4-16.79,0-4.88-1.43-9.11-4.14-12A15.75,15.75,0,0,0,589.36,497.82Zm8.87,26a10.17,10.17,0,0,1-2.41,3.6,9,9,0,0,1-6.56,2.61,9.64,9.64,0,0,1-6.25-2.42c-2.51-2.26-4.14-7.23-4.14-12.7,0-5,1.38-9.8,3.45-12.12a9.29,9.29,0,0,1,7-3.2,9.58,9.58,0,0,1,6.31,2.47c2.65,2.41,4.18,7,4.18,12.9A26.57,26.57,0,0,1,598.23,523.82Z"/><path class="cls-1" d="M635.35,498.51v.94c3.79.24,4.53,1.23,4.63,6.3v13.3c0,3.34-.34,5.22-1.13,6.69-1.33,2.37-4.48,3.89-8.18,3.89-3.49,0-5.9-1.18-7.24-3.49-.88-1.58-1.22-3.4-1.22-6.5V503.88c0-3.6.54-4.09,4.48-4.43v-.94H612.75v.94c3.89.29,4.38.78,4.43,4.43v15.36c0,8.52,4,12.56,12.36,12.56,5.37,0,9.06-1.72,11-5.07,1.18-2.07,1.62-4.34,1.62-8.13V505.75c.1-5.17.64-5.86,4.63-6.3v-.94Z"/><path class="cls-1" d="M544.7,201.39a5.4,5.4,0,1,0,5.39-5.39A5.39,5.39,0,0,0,544.7,201.39Zm5.39-2.48a2.48,2.48,0,1,1-2.48,2.48A2.48,2.48,0,0,1,550.09,198.91Z"/><path class="cls-1" d="M544.24,190.75a3.85,3.85,0,1,0-3.85-3.85A3.86,3.86,0,0,0,544.24,190.75Zm0-4.79a.94.94,0,0,1,.94.94c0,1-1.88,1-1.88,0A.94.94,0,0,1,544.24,186Z"/><path class="cls-1" d="M505.94,201.31a3.85,3.85,0,1,0-3.85-3.85A3.85,3.85,0,0,0,505.94,201.31Zm0-4.79a.94.94,0,0,1,.94.94c0,1-1.88,1-1.88,0A.94.94,0,0,1,505.94,196.52Z"/><path class="cls-1" d="M203.56,210.5a.72.72,0,0,1,.28.34.67.67,0,0,1,0,.44,4.35,4.35,0,0,1-.28.65l.25.13,2.29-4.53-.25-.13a6.12,6.12,0,0,1-.36.64.69.69,0,0,1-.35.28.75.75,0,0,1-.44,0,6.29,6.29,0,0,1-.67-.3l-6.67-3.34,2.41-4.75a2.75,2.75,0,0,1,.82-1.1,1.52,1.52,0,0,1,1.29.11l.16-.32-3.74-1.89-.15.32a3.11,3.11,0,0,1,.58.5.94.94,0,0,1,.22.49,1.31,1.31,0,0,1-.08.56,5.9,5.9,0,0,1-.32.71L196.14,204l-5.67-2.87a1.27,1.27,0,0,1-.44-.31c0-.07,0-.24.15-.52l2.46-4.85a6.1,6.1,0,0,1,.42-.75,1.65,1.65,0,0,1,.45-.46,1.24,1.24,0,0,1,.6-.16,2.46,2.46,0,0,1,.85.15l.18-.35-2.56-1.26-5.53,10.91.25.12a4.28,4.28,0,0,1,.36-.61.65.65,0,0,1,.33-.26.81.81,0,0,1,.45,0,4.62,4.62,0,0,1,.66.29l13.83,7A4.79,4.79,0,0,1,203.56,210.5Z"/><path class="cls-1" d="M230.46,168.09a.69.69,0,0,1-.12.43,4.69,4.69,0,0,1-.41.57l.21.18,7.94-9.67-2.1-2.73-.29.23a5.17,5.17,0,0,1,.45,1.25,2.34,2.34,0,0,1,0,1,3.18,3.18,0,0,1-.45,1c-.21.32-.49.68-.8,1.06l-2.57,3.13-.25.32a1.56,1.56,0,0,1-.29.33.62.62,0,0,1-.35.18.45.45,0,0,1-.38-.11l-11.81-9.7a4.67,4.67,0,0,1-.54-.51.69.69,0,0,1-.17-.41.74.74,0,0,1,.13-.45,3.86,3.86,0,0,1,.43-.58l-.22-.18-3.24,3.94.22.18a5.38,5.38,0,0,1,.48-.52.67.67,0,0,1,.39-.2.74.74,0,0,1,.44.13,4.91,4.91,0,0,1,.59.42l12,9.84a3.47,3.47,0,0,1,.54.5A.67.67,0,0,1,230.46,168.09Z"/><path class="cls-1" d="M258.94,126a12.29,12.29,0,0,0,2.76,2.64,8.78,8.78,0,0,0,3.23,1.4,7.93,7.93,0,0,0,3.46,0,8.88,8.88,0,0,0,3.44-1.71,8.77,8.77,0,0,0,2.5-2.89,7.82,7.82,0,0,0,.89-3.35,8.8,8.8,0,0,0-.54-3.48,12.12,12.12,0,0,0-1.83-3.33,11.53,11.53,0,0,0-3.23-2.93,8.7,8.7,0,0,0-3.45-1.2,8.2,8.2,0,0,0-3.35.29,9,9,0,0,0-2.93,1.47,8.52,8.52,0,0,0-2.18,2.44,8.2,8.2,0,0,0-1.11,3.19,9.23,9.23,0,0,0,.3,3.65A11.36,11.36,0,0,0,258.94,126Zm-.08-9.65a5.25,5.25,0,0,1,1.86-2.41,5.05,5.05,0,0,1,2.77-1.17,6.34,6.34,0,0,1,2.76.38,9.1,9.1,0,0,1,2.53,1.49,13.12,13.12,0,0,1,2.09,2.13,13.54,13.54,0,0,1,1.55,2.55,8.59,8.59,0,0,1,.81,2.8,6,6,0,0,1-.33,2.77,5.41,5.41,0,0,1-1.85,2.4,5.32,5.32,0,0,1-2.79,1.19,6.1,6.1,0,0,1-2.74-.36,8.9,8.9,0,0,1-2.51-1.49,13.43,13.43,0,0,1-3.65-4.7,8.71,8.71,0,0,1-.81-2.81A6.31,6.31,0,0,1,258.86,116.3Z"/><path class="cls-1" d="M303.13,86.78a4,4,0,0,1,.85.7l12,13.59,1.12-.49L315.62,85.8l9.87,11.13,1.12-.49c-.36-3.09-.7-6.17-1-9.22s-.59-6.14-.84-9.25a1.91,1.91,0,0,1,.11-.86,1.49,1.49,0,0,1,.63-.57l-.11-.26-3.54,1.54.11.26c.53-.19.89-.19,1.1,0a1.74,1.74,0,0,1,.39,1L324.82,93l-9.71-10.9a.71.71,0,0,1-.24-.45.57.57,0,0,1,.09-.36,1,1,0,0,1,.33-.3l.45-.22-.11-.25-4.68,2,.11.26a1.84,1.84,0,0,1,.75-.19,1.15,1.15,0,0,1,.71.34l1.61,1.48L315.39,97l-9.57-10.86c-.31-.33-.39-.58-.25-.75a1.89,1.89,0,0,1,.71-.48l-.12-.26L302,86.49l.11.26A1.17,1.17,0,0,1,303.13,86.78Z"/><path class="cls-1" d="M366.62,65.46a1.85,1.85,0,0,1,.41,1.07l2.59,15.28a1.91,1.91,0,0,1,0,1.15c-.12.18-.46.32-1,.41l0,.28,12.47-2.12.14-3.37-.44.08a4.09,4.09,0,0,1-.41,1.1,2.47,2.47,0,0,1-.58.7,2.42,2.42,0,0,1-.81.43,8.12,8.12,0,0,1-1.12.26l-4.52.77-.39.07a2.65,2.65,0,0,1-.44.07.79.79,0,0,1-.38-.09.49.49,0,0,1-.22-.35l-1.21-7.13,5.56-.94A5.54,5.54,0,0,1,377,73a1.22,1.22,0,0,1,.56.11,1,1,0,0,1,.38.37,3.72,3.72,0,0,1,.3.74l.35-.06-.7-4.13-.35.06a3.36,3.36,0,0,1,0,.76,1,1,0,0,1-.25.47,1.18,1.18,0,0,1-.5.26,5.7,5.7,0,0,1-.76.18l-5.55.94-1.06-6.27a1.09,1.09,0,0,1,0-.54c0-.07.21-.13.51-.19l5.53-.93a3.78,3.78,0,0,1,1.5,0c.36.1.65.49.86,1.17l.38-.07-.5-2.81-12.2,2.06,0,.28A1.59,1.59,0,0,1,366.62,65.46Z"/><path class="cls-1" d="M424,79.26c-.3,0-.54,0-.72-.07a.66.66,0,0,1-.41-.19.74.74,0,0,1-.17-.42,3.49,3.49,0,0,1,0-.75l.38-7.12,2,.08c.74.72,1.39,1.41,2,2.07a22.08,22.08,0,0,1,1.58,2.06,19.41,19.41,0,0,1,1.32,2.28,27.26,27.26,0,0,1,1.19,2.72l3.11.16V79.8c-.22,0-.44-.2-.67-.56s-.46-.81-.71-1.33-.54-1.09-.85-1.68a11.74,11.74,0,0,0-1-1.62c-.32-.43-.58-.8-.81-1.12s-.45-.62-.68-.92-.51-.62-.83-.95-.72-.73-1.24-1.2a8.41,8.41,0,0,0,1.82-.38,5.57,5.57,0,0,0,1.58-.79A3.91,3.91,0,0,0,432,68a4.12,4.12,0,0,0,.48-1.83,4.91,4.91,0,0,0-.38-2.35,4.36,4.36,0,0,0-1.29-1.59,5.76,5.76,0,0,0-1.94-1,10.32,10.32,0,0,0-2.33-.39l-6.62-.35v.28a3.75,3.75,0,0,1,.68.07.8.8,0,0,1,.39.2.74.74,0,0,1,.16.43,5.7,5.7,0,0,1,0,.72L420.3,77.7a4.86,4.86,0,0,1-.08.73.66.66,0,0,1-.2.39.67.67,0,0,1-.42.16,4.81,4.81,0,0,1-.68,0v.28l5,.26Zm-.5-16.78a1.23,1.23,0,0,1,.44-.28,1.81,1.81,0,0,1,.58-.1h.58l.55,0a10.42,10.42,0,0,1,1.69.23,4.18,4.18,0,0,1,1.45.59,2.72,2.72,0,0,1,1,1.09,3.24,3.24,0,0,1,.3,1.71,3.66,3.66,0,0,1-.57,1.91,3.51,3.51,0,0,1-1.31,1.17,5.15,5.15,0,0,1-1.77.54,9.81,9.81,0,0,1-2,.08l-1.33-.07Z"/><path class="cls-1" d="M512.66,100.8a.67.67,0,0,1,.37,0c.57.51,1.13,1,1.68,1.48a8.58,8.58,0,0,0,1.86,1.23,7,7,0,0,0,2.07.65,6.34,6.34,0,0,0,2.13,0,5.09,5.09,0,0,0,1.93-.79,4.28,4.28,0,0,0,1.4-1.67,4.93,4.93,0,0,0,.55-2,5.42,5.42,0,0,0-.25-1.87,9.17,9.17,0,0,0-.8-1.79,18.56,18.56,0,0,0-1.13-1.7l.14.16c-.37-.51-.72-1-1.05-1.57a15.32,15.32,0,0,1-.89-1.64,5.25,5.25,0,0,1-.39-1.36,2.18,2.18,0,0,1,.22-1.36,2.68,2.68,0,0,1,1.16-1.25,3,3,0,0,1,1.56-.34,4.14,4.14,0,0,1,1.65.44,4.78,4.78,0,0,1,1.47,1.13,5.16,5.16,0,0,1,1,1.66,4.18,4.18,0,0,1,.2,2l.27.13a13.85,13.85,0,0,0,.9-1.9c.26-.68.5-1.34.74-2l-.27-.13a.54.54,0,0,1-.7.24l-.22-.19L527.8,88l-.42-.38a2.72,2.72,0,0,1-.23-.22,10.43,10.43,0,0,0-.88-.74,8.33,8.33,0,0,0-1-.59,6,6,0,0,0-1.9-.58,5.47,5.47,0,0,0-1.94.07,5,5,0,0,0-1.73.77,4.07,4.07,0,0,0-1.26,1.53,4.48,4.48,0,0,0-.51,2.49,6.89,6.89,0,0,0,.7,2.26A14.55,14.55,0,0,0,520,94.78a22.62,22.62,0,0,1,1.35,2.06,7.18,7.18,0,0,1,.81,2,3.13,3.13,0,0,1-.3,2.07,3.09,3.09,0,0,1-1.2,1.34,3.46,3.46,0,0,1-1.66.47,4.2,4.2,0,0,1-1.78-.36,4.85,4.85,0,0,1-1.61-1.08,5.41,5.41,0,0,1-1.13-1.73,4.94,4.94,0,0,1-.37-2.31l-.22-.11-.09,0-1.66,3.69.29.15A.45.45,0,0,1,512.66,100.8Z"/><path class="cls-1" d="M558.39,129.24a4.41,4.41,0,0,1-.52-.47.72.72,0,0,1-.2-.4.75.75,0,0,1,.11-.43c.1-.15.24-.35.43-.59l4.59-5.63,7,5.73-4.6,5.63a3.3,3.3,0,0,1-.5.53.8.8,0,0,1-.41.19.69.69,0,0,1-.43-.12,5.71,5.71,0,0,1-.59-.42l-.17.21,4,3.22.18-.21a3.86,3.86,0,0,1-.53-.48.8.8,0,0,1-.2-.4.68.68,0,0,1,.1-.44,4.86,4.86,0,0,1,.43-.59l9.8-12a5.43,5.43,0,0,1,.49-.53.69.69,0,0,1,.41-.2.74.74,0,0,1,.43.13,4,4,0,0,1,.58.41l.17-.21-4-3.23-.18.21a5.59,5.59,0,0,1,.53.49.79.79,0,0,1,.22.41.75.75,0,0,1-.11.43,3.36,3.36,0,0,1-.42.6l-4.31,5.29-7-5.73,4.32-5.29a5.51,5.51,0,0,1,.49-.53.82.82,0,0,1,.4-.21.76.76,0,0,1,.43.12,4.69,4.69,0,0,1,.57.41l.18-.21-3.93-3.21-.18.22a5.6,5.6,0,0,1,.53.48.81.81,0,0,1,.21.41.92.92,0,0,1-.1.43,5.74,5.74,0,0,1-.42.61l-9.8,12a3.78,3.78,0,0,1-.51.53.7.7,0,0,1-.4.19.72.72,0,0,1-.44-.12,4.49,4.49,0,0,1-.58-.42l-.18.21,3.93,3.21Z"/><path class="cls-1" d="M614.36,168.71a8.9,8.9,0,0,0,1.22-3.45,8.26,8.26,0,0,0-.26-3.36,9.25,9.25,0,0,0-1.46-2.93,8.65,8.65,0,0,0-2.43-2.19,8.23,8.23,0,0,0-3.19-1.13,9.15,9.15,0,0,0-3.64.27,11.46,11.46,0,0,0-3.87,2,12.47,12.47,0,0,0-2.65,2.74,9,9,0,0,0-1.43,3.23,8,8,0,0,0,0,3.45,9.66,9.66,0,0,0,4.57,6,8,8,0,0,0,3.34.92,9.21,9.21,0,0,0,3.49-.52,12.28,12.28,0,0,0,3.34-1.82A11.4,11.4,0,0,0,614.36,168.71Zm-4.46,1.22a14.21,14.21,0,0,1-2.56,1.53,8.93,8.93,0,0,1-2.82.8,6.16,6.16,0,0,1-2.76-.35,6,6,0,0,1-3.57-4.66,6.24,6.24,0,0,1,.39-2.74,8.49,8.49,0,0,1,1.5-2.51,13.15,13.15,0,0,1,4.72-3.61,8.93,8.93,0,0,1,2.82-.8,6.51,6.51,0,0,1,2.77.33,5.31,5.31,0,0,1,2.4,1.87,5.23,5.23,0,0,1,1.15,2.78,6.44,6.44,0,0,1-.4,2.75,9.17,9.17,0,0,1-1.51,2.53A13.46,13.46,0,0,1,609.9,169.93Z"/><path class="cls-1" d="M625.34,214.33a6.65,6.65,0,0,1-.28-.66.81.81,0,0,1,0-.48.67.67,0,0,1,.27-.36,3.08,3.08,0,0,1,.68-.37l5.95-2.72.89,2.08a10.83,10.83,0,0,0,1.29,2.23,6.21,6.21,0,0,0,1.76,1.61,4.73,4.73,0,0,0,2.17.68,5.16,5.16,0,0,0,2.55-.54,4.91,4.91,0,0,0,2-1.49,4.43,4.43,0,0,0,.87-2,6.05,6.05,0,0,0,0-2.28,9.42,9.42,0,0,0-.74-2.33L640,202l-.26.12a4.26,4.26,0,0,1,.25.63.66.66,0,0,1,0,.44.68.68,0,0,1-.3.34c-.16.1-.37.21-.63.34L625,210.31a4.07,4.07,0,0,1-.68.27.66.66,0,0,1-.44,0,.61.61,0,0,1-.33-.29,3.82,3.82,0,0,1-.33-.6l-.24.12,2.11,4.64Zm14.95-8.43a.91.91,0,0,1,.35.35,3.71,3.71,0,0,1,.24.49,5.08,5.08,0,0,1,.17.51,4,4,0,0,0,.17.49,6.62,6.62,0,0,1,.55,1.72,4.46,4.46,0,0,1,0,1.63,3.23,3.23,0,0,1-.68,1.42,4,4,0,0,1-1.46,1.08,4.86,4.86,0,0,1-1.89.49,3.21,3.21,0,0,1-1.56-.36,3.74,3.74,0,0,1-1.26-1.07,7.11,7.11,0,0,1-1-1.68l-.77-1.81Z"/></svg>