<svg id="레이어_1" data-name="레이어 1" xmlns="http://www.w3.org/2000/svg" viewBox="0 0 387.41 315.48"><defs><style>.cls-1{fill:#fff;}</style></defs><path class="cls-1" d="M111.3,146.23a1.44,1.44,0,0,0,.92-.33A51.35,51.35,0,0,0,125,130.33a29.17,29.17,0,0,0,6.59.71h.56a1.46,1.46,0,0,0,0-2.91,5,5,0,0,0-.54,0c-15.45,0-16.81-10.24-16.86-10.63-.26-3.31.4-5.65,1.95-6.94,2.62-2.17,7.13-1,7.17-1a1.38,1.38,0,0,0,.67,0c12.38-2.42,18.9-20.79,19.17-21.58a1.45,1.45,0,0,0-2.75-1c-.06.17-6.12,17.24-16.68,19.61-1.36-.31-6.13-1.11-9.42,1.61-2.34,1.93-3.35,5.1-3,9.45,0,.11,1,8.26,10.31,11.73a49.56,49.56,0,0,1-11.8,14.16,1.45,1.45,0,0,0,.92,2.58Z"/><path class="cls-1" d="M100.44,95.38a1.45,1.45,0,1,0-2.77-.86c-.1.3-8.78,27.85-19,40.08V103.1a1.46,1.46,0,1,0-2.91,0v35.14a1.46,1.46,0,0,0,.86,1.33,1.52,1.52,0,0,0,.59.12,1.44,1.44,0,0,0,1-.38C90,128.48,100,96.73,100.44,95.38Z"/><path class="cls-1" d="M357.5,88.28a1.45,1.45,0,0,0-1.72-1.12h0c-4.69,1-9,3.59-13,6.66a9.43,9.43,0,0,0,.37-4.39,7.34,7.34,0,0,0-.44-1.58,6.46,6.46,0,0,0,1.17-.07c5-.72,7.83-4.39,7.14-9.13s-4.48-7.41-9.45-6.71a7.08,7.08,0,0,0-1.72.49,7.05,7.05,0,0,0,0-1.78c-.72-5-4.4-7.83-9.14-7.15S323.3,68,324,73a7.34,7.34,0,0,0,.44,1.58,6.46,6.46,0,0,0-1.17.07,8.43,8.43,0,0,0-5.8,3.22,7.48,7.48,0,0,0-1.28,3.1,27.72,27.72,0,0,1,.55-5.38c1.87-2.46,11.36-15.63,5.84-21.27a1.44,1.44,0,0,0-.74-.41,4.87,4.87,0,0,0-3.65.78,3.49,3.49,0,0,0-4.78-.25c-1.12-.67-2.79-1.37-4.1-.6q-1.71,1-1.23,4.16c.09.49,2,11.65,5.76,17.26-1.13,5.31-.48,11.12.16,16.73.23,2.1.47,4.16.59,6.13.48,7.59.9,15.75.76,24-.14,8.84-.56,17.62-1.2,26.17-1.4-6.76-3.17-14.88-5.23-23.46,1.29-2.45,5.52-12.86,2.16-39.23a1.43,1.43,0,0,0-1.62-1.26,1.38,1.38,0,0,0-.81.46,8.38,8.38,0,0,0,.51-.76c2.48-4.46,1-9.2-3.68-11.79a7.24,7.24,0,0,0-2-.73,7.3,7.3,0,0,0,1.28-1.67c2.59-4.67,1.34-9.47-3.11-11.94s-9.2-1-11.79,3.67a7.58,7.58,0,0,0-.7,1.8,6.75,6.75,0,0,0-1.16-.81c-4.67-2.59-9.48-1.35-11.95,3.11s-1,9.2,3.68,11.79a7.6,7.6,0,0,0,2,.74,7,7,0,0,0-1.28,1.66c-2.59,4.67-1.34,9.47,3.12,12A9,9,0,0,0,287.92,93a7.46,7.46,0,0,0,2.05-.28,9,9,0,0,0,5.4-4.57,1.31,1.31,0,0,0,.08-.21c5.38,15.54,10,34.21,13.42,49.54A66.34,66.34,0,0,0,299.71,123c-3.92-12.82-20.2-27.87-20.89-28.51a1.46,1.46,0,0,0-2.44,1.14c.72,15.79,18.86,27.8,21.07,29.2A55.58,55.58,0,0,1,303.2,133a1.48,1.48,0,0,0-.58.34,16.88,16.88,0,0,0-3.92,7.06c-.55-.62-1-1.22-1.61-1.83-.91-8-9.93-14.69-10.32-15a1.46,1.46,0,0,0-2.32,1.16c-.09,10.3,8.56,14.81,10.38,15.65.64.69,1.26,1.38,1.88,2.07a16.9,16.9,0,0,0-7.73,2.59,1.46,1.46,0,0,0-.63,1.4,1.44,1.44,0,0,0,1,1.19,16.89,16.89,0,0,0,5.46,1,8,8,0,0,0,5.59-1.94l1.86,2.29a17.07,17.07,0,0,0-8,2.57,1.46,1.46,0,0,0,.33,2.59,16.9,16.9,0,0,0,5.47,1,8,8,0,0,0,5.49-1.86,150.93,150.93,0,0,1,9.25,13.9l-2.18.85c-3.24,1.21-6.58,2.46-9.75,4a86.44,86.44,0,0,0-8.58,4.91c-1.94,1.21-3.89,2.42-5.9,3.52-3.58,2-6.77,2.13-10.45,2.33-1.27.07-2.59.14-4,.29-3.53.36-7.06.77-10.59,1.21-20.46,2.53-40.35,5.54-57.3,8.19a6.26,6.26,0,0,0-5.28-5L295.48,175a1.45,1.45,0,1,0-.38-2.88l-95.23,12.58a1.46,1.46,0,0,0-1.25,1.64,1.43,1.43,0,0,0,1.24,1.19,1.4,1.4,0,0,0-1.24,1.24,1.46,1.46,0,0,0,1.34,1.56A4,4,0,0,1,202.8,192c.94,1.55.67,4.14-.76,7.49a5.78,5.78,0,0,1-.81,1.17,7.44,7.44,0,0,0-1.46,2.45,6.53,6.53,0,0,0,.85,5.61,12.78,12.78,0,0,1,.85,1.81,7.52,7.52,0,0,1-.22,5.48,15.84,15.84,0,0,1-1.61,2.64c-.49.71-1,1.43-1.4,2.18-1.36,2.45-.86,5.08-.43,7.39.68,3.58.81,5.08-2.55,6.05,0,0-2.24.23-5.37-2.9a1.46,1.46,0,0,0-1.71-.26c-.34.18-34.58,18-60.7.59a1.46,1.46,0,0,0-1.62,2.42c9.1,6,19.09,8.08,28.4,8.08A72.17,72.17,0,0,0,167,241a1.35,1.35,0,0,0,.06.53c.18.33,18.06,32.83,19.22,54.3a1.45,1.45,0,0,0,1.45,1.37h.08a1.47,1.47,0,0,0,1.38-1.53c-1.16-21.4-17.64-52-19.41-55.23a89.87,89.87,0,0,0,18.78-6.27c3.86,3.46,6.81,3,7.28,3,6.23-1.79,5.4-6.2,4.79-9.42-.12-.65-.22-1.27-.3-1.89L227.81,217c4.77-1.55,9.56-3.21,14.36-4.89,9.82-3.42,20-7,30.05-9.36,8.55-2,17.51-2.77,26.18-3.47l1.88-.15c1.58-.13,3.22-.24,4.88-.36a142.08,142.08,0,0,0,14.51-1.56c-.15,9.85-.12,20.75.13,32.49a1.46,1.46,0,0,0,1.46,1.42h0a1.45,1.45,0,0,0,1.42-1.49c-.25-11.78-.29-22.71-.13-32.58l10.69,31.29a1.47,1.47,0,0,0,1.38,1,1.5,1.5,0,0,0,.47-.08,1.46,1.46,0,0,0,.91-1.85l-10.76-31.48c.89-.26,1.82-.46,2.67-.78l16.19-6c2-.66,3.36-1.74,3.89-3.21a4.77,4.77,0,0,0-.37-3.86,3.69,3.69,0,0,0-1.16-1.38,4.69,4.69,0,0,0,2.08-2.37,4.78,4.78,0,0,0-.38-3.86A3.77,3.77,0,0,0,347,173a4.66,4.66,0,0,0,1.61-2.1,5,5,0,0,0-.39-4,3.93,3.93,0,0,0-2.08-2,4.18,4.18,0,0,0,.56-1,5,5,0,0,0-.39-4c-1.58-3.28-6-2.56-8.34-1.62l-19.22,7.53L318,166a135.38,135.38,0,0,1,5.49-15.19,8.18,8.18,0,0,0,4.68,1.31,16.52,16.52,0,0,0,5.73-1.18,1.45,1.45,0,0,0,.27-2.59,16.88,16.88,0,0,0-8.51-2.34q1.08-2.26,2.28-4.51a8.07,8.07,0,0,0,4.92,1.48,16.48,16.48,0,0,0,5.74-1.17,1.46,1.46,0,0,0,.26-2.6,17,17,0,0,0-8.26-2.34c.33-.53.66-1.07,1-1.58,10.45-2,11.23-12,11.24-12.07a1.46,1.46,0,0,0-.68-1.32,1.41,1.41,0,0,0-1.48,0c-4.09,2.27-7.8,6.34-11.06,11.13a1.32,1.32,0,0,0-.23.35c-.31.46-.6.94-.9,1.41a17.44,17.44,0,0,0-3.92-6.45,1.46,1.46,0,0,0-1.5-.34,1.44,1.44,0,0,0-1,1.2c-.83,6.69,1.56,9.54,3.35,10.74-.64,1.17-1.25,2.35-1.83,3.53a17.82,17.82,0,0,0-3.76-6,1.45,1.45,0,0,0-1.38-.34c.36-2,.67-3.94,1.15-5.79,3.27-4.22,8.81-8.13,14.16-11.9s10.71-7.55,14.17-11.81a52.85,52.85,0,0,0,7.38-12.76c.06-.15.24-.69.46-1.39.31-1,1-3.21,1.32-3.86A1.44,1.44,0,0,0,357.5,88.28ZM279.94,99.62c4.17,4.24,11.51,12.29,15.3,20C290.33,115.8,282.31,108.44,279.94,99.62Zm7.82,28.65a23.48,23.48,0,0,1,5.82,8.1A14,14,0,0,1,287.76,128.27Zm12.08,24a10.7,10.7,0,0,1,2.51-.38A7.53,7.53,0,0,1,299.84,152.3Zm28.75-3.09a6.41,6.41,0,0,1-2.53-.32A11.74,11.74,0,0,1,328.59,149.21Zm2.2-9.45a10.78,10.78,0,0,1,2.51.31,6.65,6.65,0,0,1-2.54-.31Zm8.06-13.06a10.16,10.16,0,0,1-4.3,4.52A33.89,33.89,0,0,1,338.85,126.7Zm-19-47.15a5.59,5.59,0,0,1,3.87-2.06,6.17,6.17,0,0,1,3.41.7,1.46,1.46,0,0,0,1.78-.48,1.45,1.45,0,0,0-.11-1.83,6.78,6.78,0,0,1-1.89-3.34c-.58-4,1.82-5.8,4.25-6.16s5.25.7,5.84,4.69a7.77,7.77,0,0,1-1.28,4.54A1.46,1.46,0,0,0,338,77.34a7.71,7.71,0,0,1,4-2.52c4-.6,5.79,1.81,6.15,4.25s-.69,5.25-4.68,5.83a6.43,6.43,0,0,1-3.41-.7,1.47,1.47,0,0,0-1.78.48,1.45,1.45,0,0,0,.11,1.83,6.78,6.78,0,0,1,1.89,3.34c.58,4-1.82,5.8-4.25,6.15s-5.25-.69-5.84-4.68a7.79,7.79,0,0,1,1.28-4.55,1.44,1.44,0,0,0-.4-1.87,1.39,1.39,0,0,0-.87-.3,1.46,1.46,0,0,0-1,.45,7.71,7.71,0,0,1-4,2.52c-4,.59-5.8-1.82-6.15-4.25A5,5,0,0,1,319.84,79.55ZM311,57.5a4.27,4.27,0,0,1-.07-1.09,6.48,6.48,0,0,1,1.73,1,1.46,1.46,0,0,0,2-.15c.55-.6,1-.79,1.17-.75.34.06.78.64,1,1a1.46,1.46,0,0,0,2.57.16,1.94,1.94,0,0,1,1.54-1c2.05,3.06-1.74,10.51-5.33,15.63C312.61,66.91,311,57.58,311,57.5Zm-3.27,62.28c-.45-1.8-.92-3.61-1.39-5.43v0c-1.47-5.79.16-11.18,1.89-16.89.29-1,.59-2,.87-2.93C310.08,107.74,308.85,115.59,307.71,119.78Zm.74-34.65a1.39,1.39,0,0,0-.23.84h0a13.94,13.94,0,0,1-1,4.35c-.21.63-.4,1.22-.53,1.71-.39,1.53-.85,3-1.31,4.54-.72,2.41-1.45,4.85-1.95,7.34-1.58-5.57-3.27-11-5-16.19A8,8,0,0,0,308.45,85.13Zm-15-2.56a7.38,7.38,0,0,1-.58,4.17,6.18,6.18,0,0,1-3.64,3.18,5.49,5.49,0,0,1-4.19-.64c-2.37-1.31-4.14-4.11-2-8a8.56,8.56,0,0,1,4.13-3.12,1.46,1.46,0,0,0-.58-2.79l-.21,0a8.48,8.48,0,0,1-5.15-.46c-3.89-2.16-3.87-5.46-2.55-7.84s4.11-4.13,8-2a6.94,6.94,0,0,1,2.5,2.88,1.46,1.46,0,0,0,2.73-.82,7.42,7.42,0,0,1,.58-4.18c2.16-3.88,5.46-3.86,7.83-2.54s4.14,4.11,2,8a8.5,8.5,0,0,1-4.13,3.12,1.45,1.45,0,0,0,.79,2.77,8.54,8.54,0,0,1,5.16.46C308,77,308,80.26,306.64,82.64s-4.11,4.14-8,2a6.59,6.59,0,0,1-2.11-2.29.58.58,0,0,0,0-.14c0-.08-.12-.1-.16-.18a2.53,2.53,0,0,1-.18-.27,1.46,1.46,0,0,0-2.73.83Zm8.88,56.37a6.81,6.81,0,0,1-.83,2.42A10.47,10.47,0,0,1,302.29,138.94Zm-7.75,6.82a10.62,10.62,0,0,1,2.56-.39A5.82,5.82,0,0,1,294.54,145.76Zm7.88-1.1c1.4-1.18,2.93-3.5,2.87-7.82a108.05,108.05,0,0,1,7.58,19.77c.2,1,.39,2,.57,2.95A174,174,0,0,0,302.42,144.66Zm17.37,23.78,19.2-7.52c.76-.3,4-1.22,4.71.3a2.16,2.16,0,0,1,.21,1.64c-.3.8-1.37,1.29-2.27,1.59l-17.19,6.37a1.45,1.45,0,1,0,1,2.72l15.18-5.62c.09,0,.17,0,.26,0,.76-.31,4-1.22,4.71.29a2.18,2.18,0,0,1,.21,1.65c-.3.79-1.37,1.29-2.27,1.58l-17.19,6.37a1.46,1.46,0,0,0,1,2.73l13.53-5c.13,0,.25.05.37,0,.71-.27,3.7-1.13,4.37.25a2,2,0,0,1,.19,1.49c-.27.72-1.26,1.18-2.11,1.45l-16.27,6a1.46,1.46,0,0,0,.51,2.82,1.57,1.57,0,0,0,.51-.09l11.75-4.35c.17,0,.34.07.51,0,.7-.29,3.68-1.15,4.36.25a2,2,0,0,1,.2,1.49c-.28.72-1.27,1.18-2.11,1.45-10.5,3.89-14.6,5.41-16.2,6.23l-.07-.2c-6.5,2.41-14.35,2.94-21.94,3.46-1.68.11-3.33.22-4.93.35l-1.87.16c-8.78.71-17.86,1.45-26.63,3.54-10.21,2.44-20.44,6-30.33,9.45-4.78,1.66-9.54,3.33-14.29,4.86l-26.28,8.48a3,3,0,0,1,.14-.42c.38-.67.82-1.3,1.26-1.93a20,20,0,0,0,1.87-3.12,10.43,10.43,0,0,0,.3-7.63,17.08,17.08,0,0,0-1-2.22c-.69-1.28-1.07-2-.64-3.36a4.85,4.85,0,0,1,.95-1.5,8,8,0,0,0,1.21-1.85,18,18,0,0,0,1.43-5.16c17-2.66,37-5.7,57.59-8.24,3.5-.43,7-.85,10.53-1.21,1.34-.14,2.61-.21,3.83-.28,3.88-.21,7.54-.4,11.69-2.68,2.07-1.12,4.06-2.36,6.05-3.61a85.75,85.75,0,0,1,8.29-4.74c3.06-1.46,6.34-2.69,9.52-3.88C315.71,170.05,317.78,169.27,319.79,168.44Zm6.13-32.13a6.57,6.57,0,0,1-.89-2.39A10.81,10.81,0,0,1,325.92,136.31Zm-4.7,9.13a6.9,6.9,0,0,1-.89-2.38A10.73,10.73,0,0,1,321.22,145.44Zm-.24,3.77c-1.61,3.75-3,7.3-4,10.22-.16-3.12-.18-6.32,0-9.53a.86.86,0,0,0,0-.16c.09-2.07.34-4,.55-6A7.94,7.94,0,0,0,321,149.21Zm-2.82-23c0-1.34.1-2.67.13-4,.13-8.4-.29-16.63-.77-24.28-.13-2-.37-4.12-.61-6.27-.29-2.51-.56-5.06-.68-7.55.82,4.51,4.52,7,9.37,6.37a7.08,7.08,0,0,0,1.72-.49,7.05,7.05,0,0,0,0,1.78C328,96.21,331,99,335.1,99a10.92,10.92,0,0,0,1.37-.1c.12,0,.23-.07.36-.09-8.33,7.36-13.61,14.39-17,22.71C319.19,123,318.68,124.61,318.16,126.2ZM353,92.59c-.18.55-.31,1-.36,1.12a50.25,50.25,0,0,1-7,12.06c-3.22,4-8.5,7.67-13.6,11.27a114.89,114.89,0,0,0-10.56,8.06c.3-.85.62-1.68.95-2.49,3.32-8.1,8.54-15,16.91-22.23,4.41-3.83,9.11-7.66,14.17-9.55C353.41,91.34,353.23,91.92,353,92.59Z"/><path class="cls-1" d="M333.6,85.36a4,4,0,0,0,.49,0,4.16,4.16,0,1,0-.49,0ZM333.45,80h.16a1.24,1.24,0,0,1,1.23,1.11h0a1.22,1.22,0,0,1-.26.92,1.24,1.24,0,0,1-.84.47,1.29,1.29,0,0,1-1.4-1.1A1.25,1.25,0,0,1,333.45,80Z"/><path class="cls-1" d="M296.29,74.43a4.16,4.16,0,0,0-8.27,1,4.18,4.18,0,0,0,4.14,3.67,4,4,0,0,0,.49,0,4.17,4.17,0,0,0,2.79-1.57A4.12,4.12,0,0,0,296.29,74.43Zm-3.14,1.27a1.25,1.25,0,0,1-.84.48,1.28,1.28,0,0,1-1.4-1.1,1.26,1.26,0,0,1,1.1-1.4h.15a1.25,1.25,0,0,1,1.24,1.11h0A1.22,1.22,0,0,1,293.15,75.7Z"/><path class="cls-1" d="M89.26,148.51A46.53,46.53,0,0,0,97.7,178.7a1.42,1.42,0,0,0,.06,1.14c6.38,12.54,9.4,25.32,8.75,36.95-.27,4.94-1.6,10-2.87,14.81-2.14,8.09-4.34,16.46-2,25.13a46.26,46.26,0,0,0,3.73,8.88,38.16,38.16,0,0,1,3.79,9.58c1.16,5.84.36,13.14-2.18,20a1.45,1.45,0,0,0,.86,1.87,1.45,1.45,0,0,0,1.86-.86c2.73-7.37,3.58-15.25,2.32-21.61a40.66,40.66,0,0,0-4.06-10.31,44.34,44.34,0,0,1-3.51-8.34c-2.11-7.92-.1-15.55,2-23.63,1.32-5,2.68-10.15,3-15.38.56-10-1.51-20.76-5.92-31.5a52.69,52.69,0,0,0,18.39,11.41,1.51,1.51,0,0,0,.5.09,1.46,1.46,0,0,0,1.07-2.44c-2.7-2.94-2.31-10.28-2.16-13.05,0-.33.06-.66.08-1,11.47-6,40.23-16.55,73.27,6a1.47,1.47,0,0,0,.82.26,1.46,1.46,0,0,0,.82-2.66C170.45,166.44,147.09,168.31,132,173c0-.09.06-.16,0-.25-4.31-16.15,7.74-27,10.59-29.32.9.29,2,.68,3.3,1.13,9.28,3.25,26.57,9.29,33.81,3.68,2.51-1.94,3.6-5,3.26-9.1-.08-1-.06-2.79,1-3.52a6.4,6.4,0,0,0,2.24-8.17c1.68-2.6.81-5.46.11-7L192,115.1a1.45,1.45,0,0,0-.45-2.4c-5.18-2.15-7.31-7.07-8.19-11.06a16.78,16.78,0,0,0,8.34-.47c-3.48,0-6.89-1.82-8.86-3.1-.1-1.36-.07-2.25-.07-2.28.53-10.33-3.35-15.74-3.52-16s-.29-.18-.44-.27a1.44,1.44,0,0,0,.66-1.07c.76-12.18-3.9-23.25-13.48-32-13.47-12.31-36-18.89-54.89-16A60.89,60.89,0,0,0,64.26,65.56c-6.11,13.25-7.75,26.69-8.32,42.8l-.08,2.06c-.38,10.17-.79,22.67,4,31.92a131.44,131.44,0,0,0-26,10.12,1.47,1.47,0,0,0-.78,1.06,1.49,1.49,0,0,0,.4,1.26c.46.47,10.83,10.79,25.43,10.79.81,0,1.63,0,2.47-.1l.32-.05c2.63,10.24-3.43,17.33-9.91,24.79-3.37,3.88-6.85,7.9-9.08,12.43-4.18,8.51-2.59,15.5-.89,22.9.47,2.06,1,4.19,1.34,6.45,1.82,10.63-3.48,18-9.56,25.21-6.86,8.15-9.78,19.42-7.6,29.4a1.45,1.45,0,0,0,1.42,1.14,1.63,1.63,0,0,0,.31,0A1.45,1.45,0,0,0,28.82,286a32.15,32.15,0,0,1,7-26.91C42.34,251.31,48,243.35,46,231.5c-.4-2.31-.89-4.5-1.38-6.61-1.64-7.18-3.06-13.39.67-21,2.06-4.19,5.42-8.06,8.67-11.8,6.64-7.65,13.4-15.59,10.58-27.13,7.35-1.38,14.33-5.41,20.85-12.12A105.82,105.82,0,0,1,82,178.65c-1.45,5.46-4.12,10.56-6.7,15.5-3.69,7-7.5,14.3-8.15,23-.53,7.17,1.09,13.94,2.65,20.49s3,12.73,2.59,19.38c-.83,12.3-6.55,22.87-16.12,29.77a1.46,1.46,0,0,0-.33,2,1.47,1.47,0,0,0,1.19.6,1.45,1.45,0,0,0,.84-.27c10.28-7.41,16.43-18.76,17.32-31.94.48-7.08-1.12-13.77-2.66-20.25S69.52,224.1,70,217.38c.6-8.11,4.1-14.8,7.81-21.88,2.66-5.08,5.4-10.33,6.94-16.09a110.42,110.42,0,0,0,3.58-29.83Zm3.09-1.87c3.57,3.79,10.66,12,12.33,19.27-1.84-1.59-3.88-3.63-4.42-5.16a1.45,1.45,0,1,0-2.74,1c1.29,3.71,7.43,8.17,8.12,8.67a1.46,1.46,0,0,0,.85.27,1.45,1.45,0,0,0,1.45-1.41c.28-9.1-9.28-20.19-13.59-24.73a62.1,62.1,0,0,1,10.4,3.14c8.87,4.5,14.47,14.55,14.28,25.61,0,1.51-.18,3-.34,4.52-.11,1.17-.23,2.35-.3,3.53-.19,3.67-.22,7.92.84,11.31C100.66,184.14,90.23,166.31,92.35,146.64Zm51.21-6c-2.05-8-5-27.21,3.06-30.76.8-.35,1.55-.74,2.29-1.12,2.22-1.14,4-2,6.38-1.71a15.84,15.84,0,0,1,10.14,6.62c5.11,7,7.36,16,5.74,22.77a15.32,15.32,0,0,1-8,10.2,136,136,0,0,1-16.3-4.87C145.56,141.34,144.48,141,143.56,140.67ZM58.77,110.53l.08-2.06C59.41,92.71,61,79.59,66.9,66.78c8.53-18.44,24.38-30.31,44.62-33.41,18-2.76,39.63,3.51,52.49,15.27,8.67,7.93,13,17.87,12.58,28.8L164.3,83c.25-5.52.26-18.23-4.4-22.66a1.46,1.46,0,0,0-1.68-.24,1.48,1.48,0,0,0-.77,1.52c0,.24,3.38,22.59-8.55,30.86,1.73-4.34,3.51-11.58.37-18.7a1.45,1.45,0,1,0-2.66,1.17c4.22,9.58-2.09,19.93-2.15,20a1.44,1.44,0,0,0,.11,1.68,1.47,1.47,0,0,0,1.62.46c12-4.34,14.47-17.68,14.66-26.84a73,73,0,0,1,.41,14.92,1.42,1.42,0,0,0,.61,1.3,1.44,1.44,0,0,0,1.43.14l13.36-6a1.44,1.44,0,0,0,.23,1s3.43,4.88,3,14.09c0,.57-.61,13.35,8.62,18.78l-5,4.71a1.45,1.45,0,0,0-.18,1.84s2.06,3.16.12,5.35a1.48,1.48,0,0,0-.16,1.72,3.72,3.72,0,0,1-1,5.19c-1.66,1.15-2.45,3.34-2.22,6.15.26,3.09-.44,5.24-2.14,6.55-2.29,1.77-6.17,2-10.54,1.46A18.14,18.14,0,0,0,174,137.15c1.81-7.57-.63-17.45-6.22-25.16a18.51,18.51,0,0,0-12.09-7.79c-3.32-.46-5.75.79-8.11,2-.68.36-1.39.72-2.13,1-11.28,5-6,29-4.75,34-3.35,2.81-16.11,14.87-11.48,32.25,0,.14.16.22.23.34a72.19,72.19,0,0,0-7.79,3.23c.12-1.25.25-2.5.27-3.75.22-12.17-6-23.27-15.87-28.27-.1-.05-12-4.84-15.08-3.29-2.86-1.12-12-3.74-28.24-.1C58,133.05,58.39,120.61,58.77,110.53Zm2.38,52c-11.37.93-20.56-5.54-24.08-8.46C61.89,142,77.71,142,85.3,143.32c-7.21,1-23.6,3.94-25.8,9.94a1.44,1.44,0,0,0,1.07,1.92,57.27,57.27,0,0,0,9.94,1.14c.56,0,1.1,0,1.61-.06a1.46,1.46,0,0,0,1.34-1.56,1.47,1.47,0,0,0-1.56-1.34,39.85,39.85,0,0,1-8.44-.62C67.37,149.62,79,147,87.54,146c-.56.7-1.11,1.43-1.67,2.08v0C78.19,157,69.9,161.86,61.15,162.56Z"/><path class="cls-1" d="M328.21,44a5.39,5.39,0,1,0,5.39-5.39A5.4,5.4,0,0,0,328.21,44Zm5.39-2.48A2.48,2.48,0,1,1,331.12,44,2.48,2.48,0,0,1,333.6,41.48Z"/><path class="cls-1" d="M327.74,33.31a3.85,3.85,0,1,0-3.85-3.85A3.85,3.85,0,0,0,327.74,33.31Zm0-4.79a1,1,0,0,1,.94.94c0,1-1.88,1-1.88,0A1,1,0,0,1,327.74,28.52Z"/><path class="cls-1" d="M289.45,43.87A3.85,3.85,0,1,0,285.6,40,3.86,3.86,0,0,0,289.45,43.87Zm0-4.79a.94.94,0,0,1,.94.94c0,1-1.88,1-1.88,0A.94.94,0,0,1,289.45,39.08Z"/></svg>